<svg xmlns="http://www.w3.org/2000/svg" viewBox="0 0 72 88" fill="none">
  <defs>
    <linearGradient id="ice" x1="14" y1="14" x2="58" y2="74" gradientUnits="userSpaceOnUse"><stop stop-color="#fff"/><stop offset=".25" stop-color="#8ff4ff"/><stop offset=".54" stop-color="#0879ff"/><stop offset=".72" stop-color="#cffdff"/><stop offset="1" stop-color="#fff"/></linearGradient>
    <linearGradient id="deep" x1="17" y1="22" x2="57" y2="62" gradientUnits="userSpaceOnUse"><stop stop-color="#44baff"/><stop offset=".58" stop-color="#004acd"/><stop offset="1" stop-color="#082951"/></linearGradient>
    <radialGradient id="aura"><stop stop-color="#93f6ff" stop-opacity=".56"/><stop offset=".5" stop-color="#009dff" stop-opacity=".24"/><stop offset="1" stop-color="#0078ff" stop-opacity="0"/></radialGradient>
  </defs>
  <ellipse cx="36" cy="44" rx="36" ry="44" fill="url(#aura)"/>
  <path d="M36 7 57 24 65 43 36 80 7 43 15 24Z" fill="url(#ice)" stroke="#e9ffff" stroke-width="1.3"/>
  <path d="m36 7-8 20h16Z" fill="#e5fdff"/>
  <path d="m15 24 13 3-21 16Z" fill="#adf2ff"/>
  <path d="m57 24-13 3 21 16Z" fill="#0b72e2"/>
  <path d="M28 27h16l9 16-17 25-17-25Z" fill="url(#deep)" stroke="#acfbff" stroke-width=".7"/>
  <path d="m28 27 8 12 8-12M19 43l17-4 17 4M36 39v29" stroke="#d2ffff" stroke-width="1"/>
  <path d="M7 43h12l17 37M65 43H53L36 80M15 24l13 3M57 24l-13 3" stroke="#f5ffff" stroke-width="1.1"/>
  <path d="m15 24 21-17 21 17M7 43l8-19M65 43l-8-19" stroke="#70eaff" stroke-width="1.3"/>
  <path d="m28 27 8 12-17 4Z" fill="#f3ffff" fill-opacity=".62"/>
  <path d="m44 27 9 16-17-4Z" fill="#1d90ff"/>
  <path d="m19 43 17 25V39Z" fill="#18d3ff" fill-opacity=".25"/>
  <path d="m36 68 17-25L36 39Z" fill="#fff" fill-opacity=".38"/>
  <path d="m16 10 1.8 9.2L27 21l-9.2 1.8L16 32l-1.8-9.2L5 21l9.2-1.8Z" fill="#fff"/>
  <path d="m56 51 1.4 7.6L65 60l-7.6 1.4L56 69l-1.4-7.6L47 60l7.6-1.4Z" fill="#e1ffff"/>
</svg>
