<svg xmlns="http://www.w3.org/2000/svg" viewBox="0 0 200 200" fill="none">
  <defs>
    <linearGradient id="steel" x1="21" y1="14" x2="169" y2="190" gradientUnits="userSpaceOnUse"><stop stop-color="#f4fcff"/><stop offset=".1" stop-color="#49647b"/><stop offset=".23" stop-color="#e1f8ff"/><stop offset=".4" stop-color="#061423"/><stop offset=".55" stop-color="#9ed5ea"/><stop offset=".7" stop-color="#253a50"/><stop offset=".84" stop-color="#f2fbff"/><stop offset="1" stop-color="#28546b"/></linearGradient>
    <linearGradient id="cyan" x1="29" y1="20" x2="169" y2="170" gradientUnits="userSpaceOnUse"><stop stop-color="#cfffff"/><stop offset=".16" stop-color="#00aaff"/><stop offset=".34" stop-color="#11f6ff"/><stop offset=".52" stop-color="#006aff"/><stop offset=".76" stop-color="#caffff"/><stop offset="1" stop-color="#009cff"/></linearGradient>
    <radialGradient id="chamber"><stop stop-color="#001426"/><stop offset=".71" stop-color="#001327"/><stop offset=".88" stop-color="#004087"/><stop offset="1" stop-color="#087fea"/></radialGradient>
    <radialGradient id="bloom"><stop stop-color="#e6ffff" stop-opacity=".88"/><stop offset=".24" stop-color="#17eaff" stop-opacity=".64"/><stop offset=".6" stop-color="#007cff" stop-opacity=".18"/><stop offset="1" stop-color="#007aff" stop-opacity="0"/></radialGradient>
    <g id="tick"><path d="M100 5v8" stroke="#b9f5ff" stroke-width="1.4"/><path d="M100 17v4" stroke="#0ee5ff" stroke-width="1"/></g>
    <g id="bridge"><path d="M95 5h10l-1 8h-8Z" fill="url(#steel)" stroke="#88c8ed" stroke-width=".8"/><path d="M98 5h4v8h-4Z" fill="#bcf8ff"/><path d="M100 15v7" stroke="#03eeff" stroke-width="1.5"/></g>
    <g id="hit"><circle cx="100" cy="13" r="16" fill="url(#bloom)"/><path d="m100 2 1.1 9.9L110 13l-8.9 1.1L100 24l-1.1-9.9L90 13l8.9-1.1Z" fill="#f4ffff"/></g>
  </defs>
  <circle cx="100" cy="100" r="97" fill="#000912" stroke="#3bb5e8" stroke-width="1"/>
  <circle cx="100" cy="100" r="94" stroke="url(#steel)" stroke-width="5"/>
  <circle cx="100" cy="100" r="90" stroke="#000915" stroke-width="3"/>
  <circle cx="100" cy="100" r="87" stroke="#005abf" stroke-width="5"/>
  <circle cx="100" cy="100" r="87" stroke="url(#cyan)" stroke-width="2.8"/>
  <circle cx="100" cy="100" r="84" stroke="#bffcff" stroke-width=".8"/>
  <circle cx="100" cy="100" r="80" stroke="url(#steel)" stroke-width="5"/>
  <circle cx="100" cy="100" r="77" stroke="#020b16" stroke-width="2"/>
  <circle cx="100" cy="100" r="74" fill="url(#chamber)" stroke="url(#cyan)" stroke-width="1.8"/>
  <circle cx="100" cy="100" r="72" stroke="#bbeaff" stroke-width=".45" stroke-opacity=".65"/>
  <g stroke-linecap="round">
    <use href="#tick" transform="rotate(15 100 100)"/><use href="#tick" transform="rotate(30 100 100)"/><use href="#tick" transform="rotate(45 100 100)"/><use href="#tick" transform="rotate(60 100 100)"/><use href="#tick" transform="rotate(75 100 100)"/>
    <use href="#tick" transform="rotate(105 100 100)"/><use href="#tick" transform="rotate(120 100 100)"/><use href="#tick" transform="rotate(135 100 100)"/><use href="#tick" transform="rotate(150 100 100)"/><use href="#tick" transform="rotate(165 100 100)"/>
    <use href="#tick" transform="rotate(195 100 100)"/><use href="#tick" transform="rotate(210 100 100)"/><use href="#tick" transform="rotate(225 100 100)"/><use href="#tick" transform="rotate(240 100 100)"/><use href="#tick" transform="rotate(255 100 100)"/>
    <use href="#tick" transform="rotate(285 100 100)"/><use href="#tick" transform="rotate(300 100 100)"/><use href="#tick" transform="rotate(315 100 100)"/><use href="#tick" transform="rotate(330 100 100)"/><use href="#tick" transform="rotate(345 100 100)"/>
  </g>
  <use href="#bridge"/><use href="#bridge" transform="rotate(90 100 100)"/><use href="#bridge" transform="rotate(180 100 100)"/><use href="#bridge" transform="rotate(270 100 100)"/>
  <path d="M33 53A82 82 0 0 1 73 22M148 31A82 82 0 0 1 178 78M174 134A82 82 0 0 1 138 174M61 174A82 82 0 0 1 25 134" stroke="#e8ffff" stroke-width="1.1"/>
  <use href="#hit"/><use href="#hit" transform="rotate(90 100 100)"/><use href="#hit" transform="rotate(180 100 100)"/><use href="#hit" transform="rotate(270 100 100)"/>
</svg>
